<mxfile host="Electron" agent="Mozilla/5.0 (X11; Linux x86_64) AppleWebKit/537.36 (KHTML, like Gecko) draw.io/26.0.9 Chrome/128.0.6613.186 Electron/32.2.5 Safari/537.36" version="26.0.9">
  <diagram id="C5RBs43oDa-KdzZeNtuy" name="Page-1">
    <mxGraphModel dx="1471" dy="864" grid="0" gridSize="10" guides="1" tooltips="1" connect="1" arrows="1" fold="1" page="1" pageScale="1" pageWidth="827" pageHeight="1169" math="0" shadow="0">
      <root>
        <mxCell id="WIyWlLk6GJQsqaUBKTNV-0" />
        <mxCell id="WIyWlLk6GJQsqaUBKTNV-1" parent="WIyWlLk6GJQsqaUBKTNV-0" />
        <mxCell id="1_H_T6_QCb3iuAdfa8yS-0" value="Start" style="rounded=1;whiteSpace=wrap;html=1;fillColor=light-dark(#CCFF99,var(--ge-dark-color, #121212));" vertex="1" parent="WIyWlLk6GJQsqaUBKTNV-1">
          <mxGeometry x="363" y="121" width="94" height="54" as="geometry" />
        </mxCell>
        <mxCell id="1_H_T6_QCb3iuAdfa8yS-1" value="Is Bluetooth Installed?" style="rhombus;strokeWidth=2;whiteSpace=wrap;fillColor=light-dark(#FFCC99,var(--ge-dark-color, #121212));" vertex="1" parent="WIyWlLk6GJQsqaUBKTNV-1">
          <mxGeometry x="304" y="241" width="211" height="98" as="geometry" />
        </mxCell>
        <mxCell id="1_H_T6_QCb3iuAdfa8yS-31" style="edgeStyle=orthogonalEdgeStyle;rounded=0;orthogonalLoop=1;jettySize=auto;html=1;" edge="1" parent="WIyWlLk6GJQsqaUBKTNV-1" source="1_H_T6_QCb3iuAdfa8yS-2" target="1_H_T6_QCb3iuAdfa8yS-6">
          <mxGeometry relative="1" as="geometry">
            <Array as="points">
              <mxPoint x="132" y="498" />
            </Array>
          </mxGeometry>
        </mxCell>
        <mxCell id="1_H_T6_QCb3iuAdfa8yS-2" value="Bluetooth is already installed." style="rounded=1;whiteSpace=wrap;html=1;fillColor=light-dark(#99CCFF,var(--ge-dark-color, #121212));" vertex="1" parent="WIyWlLk6GJQsqaUBKTNV-1">
          <mxGeometry x="54" y="264" width="174" height="52" as="geometry" />
        </mxCell>
        <mxCell id="1_H_T6_QCb3iuAdfa8yS-35" style="edgeStyle=orthogonalEdgeStyle;rounded=0;orthogonalLoop=1;jettySize=auto;html=1;" edge="1" parent="WIyWlLk6GJQsqaUBKTNV-1" source="1_H_T6_QCb3iuAdfa8yS-3" target="1_H_T6_QCb3iuAdfa8yS-4">
          <mxGeometry relative="1" as="geometry" />
        </mxCell>
        <mxCell id="1_H_T6_QCb3iuAdfa8yS-3" value="Install Bluetooth bluez" style="rounded=1;whiteSpace=wrap;html=1;fillColor=light-dark(#F9FF56,var(--ge-dark-color, #121212));" vertex="1" parent="WIyWlLk6GJQsqaUBKTNV-1">
          <mxGeometry x="613" y="260" width="140" height="54" as="geometry" />
        </mxCell>
        <mxCell id="1_H_T6_QCb3iuAdfa8yS-36" style="edgeStyle=orthogonalEdgeStyle;rounded=0;orthogonalLoop=1;jettySize=auto;html=1;" edge="1" parent="WIyWlLk6GJQsqaUBKTNV-1" source="1_H_T6_QCb3iuAdfa8yS-4" target="1_H_T6_QCb3iuAdfa8yS-5">
          <mxGeometry relative="1" as="geometry" />
        </mxCell>
        <mxCell id="1_H_T6_QCb3iuAdfa8yS-4" value="Update Package List" style="rounded=1;whiteSpace=wrap;html=1;fillColor=light-dark(#CCFFE6,var(--ge-dark-color, #121212));" vertex="1" parent="WIyWlLk6GJQsqaUBKTNV-1">
          <mxGeometry x="663" y="359" width="147" height="54" as="geometry" />
        </mxCell>
        <mxCell id="1_H_T6_QCb3iuAdfa8yS-34" style="edgeStyle=orthogonalEdgeStyle;rounded=0;orthogonalLoop=1;jettySize=auto;html=1;" edge="1" parent="WIyWlLk6GJQsqaUBKTNV-1" source="1_H_T6_QCb3iuAdfa8yS-5" target="1_H_T6_QCb3iuAdfa8yS-6">
          <mxGeometry relative="1" as="geometry" />
        </mxCell>
        <mxCell id="1_H_T6_QCb3iuAdfa8yS-5" value="Install bluez" style="rounded=1;whiteSpace=wrap;html=1;fillColor=light-dark(#CCFFFF,var(--ge-dark-color, #121212));" vertex="1" parent="WIyWlLk6GJQsqaUBKTNV-1">
          <mxGeometry x="613" y="472" width="145" height="54" as="geometry" />
        </mxCell>
        <mxCell id="1_H_T6_QCb3iuAdfa8yS-6" value="Enable Bluetooth Service" style="rounded=1;whiteSpace=wrap;html=1;fillColor=light-dark(#FFC6D7,var(--ge-dark-color, #121212));" vertex="1" parent="WIyWlLk6GJQsqaUBKTNV-1">
          <mxGeometry x="295" y="472" width="240" height="54" as="geometry" />
        </mxCell>
        <mxCell id="1_H_T6_QCb3iuAdfa8yS-7" value="Start Bluetooth Service" style="rounded=1;whiteSpace=wrap;html=1;fillColor=light-dark(#CCFF99,var(--ge-dark-color, #121212));" vertex="1" parent="WIyWlLk6GJQsqaUBKTNV-1">
          <mxGeometry x="303" y="554" width="224" height="54" as="geometry" />
        </mxCell>
        <mxCell id="1_H_T6_QCb3iuAdfa8yS-8" value="Is Bluetooth Service Running?" style="rhombus;strokeWidth=2;whiteSpace=wrap;fillColor=light-dark(#FFCC99,var(--ge-dark-color, #121212));" vertex="1" parent="WIyWlLk6GJQsqaUBKTNV-1">
          <mxGeometry x="276" y="652" width="278" height="107" as="geometry" />
        </mxCell>
        <mxCell id="1_H_T6_QCb3iuAdfa8yS-41" style="edgeStyle=orthogonalEdgeStyle;rounded=0;orthogonalLoop=1;jettySize=auto;html=1;entryX=0;entryY=0.5;entryDx=0;entryDy=0;" edge="1" parent="WIyWlLk6GJQsqaUBKTNV-1" source="1_H_T6_QCb3iuAdfa8yS-9" target="1_H_T6_QCb3iuAdfa8yS-11">
          <mxGeometry relative="1" as="geometry">
            <Array as="points">
              <mxPoint x="118" y="833" />
            </Array>
          </mxGeometry>
        </mxCell>
        <mxCell id="1_H_T6_QCb3iuAdfa8yS-9" value="Bluetooth service is now running." style="rounded=1;whiteSpace=wrap;html=1;fillColor=light-dark(#99CCFF,var(--ge-dark-color, #121212));" vertex="1" parent="WIyWlLk6GJQsqaUBKTNV-1">
          <mxGeometry x="18" y="674.75" width="190" height="61.5" as="geometry" />
        </mxCell>
        <mxCell id="1_H_T6_QCb3iuAdfa8yS-40" style="edgeStyle=orthogonalEdgeStyle;rounded=0;orthogonalLoop=1;jettySize=auto;html=1;entryX=1;entryY=0.5;entryDx=0;entryDy=0;" edge="1" parent="WIyWlLk6GJQsqaUBKTNV-1" source="1_H_T6_QCb3iuAdfa8yS-10" target="1_H_T6_QCb3iuAdfa8yS-11">
          <mxGeometry relative="1" as="geometry">
            <Array as="points">
              <mxPoint x="715" y="833" />
            </Array>
          </mxGeometry>
        </mxCell>
        <mxCell id="1_H_T6_QCb3iuAdfa8yS-10" value="Failed to start Bluetooth service." style="rounded=1;whiteSpace=wrap;html=1;fillColor=light-dark(#F9FF56,var(--ge-dark-color, #121212));" vertex="1" parent="WIyWlLk6GJQsqaUBKTNV-1">
          <mxGeometry x="622" y="678.25" width="182" height="58" as="geometry" />
        </mxCell>
        <mxCell id="1_H_T6_QCb3iuAdfa8yS-11" value="List available Bluetooth devices" style="rounded=1;whiteSpace=wrap;html=1;fillColor=light-dark(#FFC6D7,var(--ge-dark-color, #121212));" vertex="1" parent="WIyWlLk6GJQsqaUBKTNV-1">
          <mxGeometry x="283" y="794" width="260" height="78" as="geometry" />
        </mxCell>
        <mxCell id="1_H_T6_QCb3iuAdfa8yS-12" value="End" style="whiteSpace=wrap;strokeWidth=2;fillColor=light-dark(#66FF66,var(--ge-dark-color, #121212));" vertex="1" parent="WIyWlLk6GJQsqaUBKTNV-1">
          <mxGeometry x="369" y="960" width="88" height="54" as="geometry" />
        </mxCell>
        <mxCell id="1_H_T6_QCb3iuAdfa8yS-13" value="" style="curved=1;startArrow=none;endArrow=block;exitX=0.5;exitY=1;entryX=0.5;entryY=0;rounded=0;" edge="1" parent="WIyWlLk6GJQsqaUBKTNV-1" source="1_H_T6_QCb3iuAdfa8yS-0" target="1_H_T6_QCb3iuAdfa8yS-1">
          <mxGeometry relative="1" as="geometry">
            <Array as="points" />
          </mxGeometry>
        </mxCell>
        <mxCell id="1_H_T6_QCb3iuAdfa8yS-14" value="Yes" style="startArrow=none;endArrow=block;exitX=0;exitY=0.5;entryX=1;entryY=0.5;rounded=0;exitDx=0;exitDy=0;entryDx=0;entryDy=0;" edge="1" parent="WIyWlLk6GJQsqaUBKTNV-1" source="1_H_T6_QCb3iuAdfa8yS-1" target="1_H_T6_QCb3iuAdfa8yS-2">
          <mxGeometry relative="1" as="geometry" />
        </mxCell>
        <mxCell id="1_H_T6_QCb3iuAdfa8yS-15" value="No" style="startArrow=none;endArrow=block;exitX=1;exitY=0.5;entryX=0;entryY=0.5;rounded=0;exitDx=0;exitDy=0;entryDx=0;entryDy=0;" edge="1" parent="WIyWlLk6GJQsqaUBKTNV-1" source="1_H_T6_QCb3iuAdfa8yS-1" target="1_H_T6_QCb3iuAdfa8yS-3">
          <mxGeometry relative="1" as="geometry" />
        </mxCell>
        <mxCell id="1_H_T6_QCb3iuAdfa8yS-20" value="" style="curved=1;startArrow=none;endArrow=block;exitX=0.5;exitY=1.01;entryX=0.5;entryY=0.01;rounded=0;" edge="1" parent="WIyWlLk6GJQsqaUBKTNV-1" source="1_H_T6_QCb3iuAdfa8yS-6" target="1_H_T6_QCb3iuAdfa8yS-7">
          <mxGeometry relative="1" as="geometry">
            <Array as="points" />
          </mxGeometry>
        </mxCell>
        <mxCell id="1_H_T6_QCb3iuAdfa8yS-21" value="" style="curved=1;startArrow=none;endArrow=block;exitX=0.5;exitY=1.01;entryX=0.5;entryY=0;rounded=0;" edge="1" parent="WIyWlLk6GJQsqaUBKTNV-1" source="1_H_T6_QCb3iuAdfa8yS-7" target="1_H_T6_QCb3iuAdfa8yS-8">
          <mxGeometry relative="1" as="geometry">
            <Array as="points" />
          </mxGeometry>
        </mxCell>
        <mxCell id="1_H_T6_QCb3iuAdfa8yS-22" value="Yes" style="startArrow=none;endArrow=block;exitX=0;exitY=0.5;entryX=1;entryY=0.5;rounded=0;exitDx=0;exitDy=0;entryDx=0;entryDy=0;" edge="1" parent="WIyWlLk6GJQsqaUBKTNV-1" source="1_H_T6_QCb3iuAdfa8yS-8" target="1_H_T6_QCb3iuAdfa8yS-9">
          <mxGeometry relative="1" as="geometry" />
        </mxCell>
        <mxCell id="1_H_T6_QCb3iuAdfa8yS-23" value="No" style="startArrow=none;endArrow=block;entryX=0;entryY=0.5;rounded=0;entryDx=0;entryDy=0;exitX=1;exitY=0.5;exitDx=0;exitDy=0;" edge="1" parent="WIyWlLk6GJQsqaUBKTNV-1" source="1_H_T6_QCb3iuAdfa8yS-8" target="1_H_T6_QCb3iuAdfa8yS-10">
          <mxGeometry relative="1" as="geometry">
            <mxPoint x="579" y="707" as="sourcePoint" />
          </mxGeometry>
        </mxCell>
        <mxCell id="1_H_T6_QCb3iuAdfa8yS-26" value="" style="curved=1;startArrow=none;endArrow=block;exitX=0.5;exitY=1.01;entryX=0.5;entryY=0.01;rounded=0;" edge="1" parent="WIyWlLk6GJQsqaUBKTNV-1" source="1_H_T6_QCb3iuAdfa8yS-11" target="1_H_T6_QCb3iuAdfa8yS-12">
          <mxGeometry relative="1" as="geometry">
            <Array as="points" />
          </mxGeometry>
        </mxCell>
        <mxCell id="1_H_T6_QCb3iuAdfa8yS-28" style="edgeStyle=orthogonalEdgeStyle;rounded=0;orthogonalLoop=1;jettySize=auto;html=1;exitX=0.5;exitY=1;exitDx=0;exitDy=0;" edge="1" parent="WIyWlLk6GJQsqaUBKTNV-1" source="1_H_T6_QCb3iuAdfa8yS-4" target="1_H_T6_QCb3iuAdfa8yS-4">
          <mxGeometry relative="1" as="geometry" />
        </mxCell>
        <mxCell id="1_H_T6_QCb3iuAdfa8yS-42" value="&lt;font style=&quot;font-size: 36px;&quot;&gt;The Flow chart of the tool&lt;/font&gt;" style="text;html=1;align=center;verticalAlign=middle;whiteSpace=wrap;rounded=0;" vertex="1" parent="WIyWlLk6GJQsqaUBKTNV-1">
          <mxGeometry x="9" y="19" width="813" height="30" as="geometry" />
        </mxCell>
      </root>
    </mxGraphModel>
  </diagram>
</mxfile>
